<?xml version="1.0" standalone="no"?>
<!DOCTYPE svg PUBLIC "-//W3C//DTD SVG 20010904//EN"
 "http://www.w3.org/TR/2001/REC-SVG-20010904/DTD/svg10.dtd">
<svg version="1.0" xmlns="http://www.w3.org/2000/svg"
 width="128.000000pt" height="128.000000pt" viewBox="0 0 128.000000 128.000000"
 preserveAspectRatio="xMidYMid meet">
<metadata>
Created by potrace 1.14, written by Peter Selinger 2001-2017
</metadata>
<g transform="translate(0.000000,128.000000) scale(0.100000,-0.100000)"
fill="#000000" stroke="none">
<path d="M645 1260 c-10 -11 -25 -20 -34 -20 -25 -1 -50 -25 -54 -51 -2 -13
-9 -25 -15 -25 -7 -1 -19 -2 -27 -3 -30 -2 -37 -42 -37 -208 0 -134 3 -168 16
-188 9 -14 12 -25 7 -25 -5 0 -12 -12 -16 -27 -9 -35 -9 -688 0 -702 4 -7 63
-11 159 -11 138 0 154 2 158 18 2 9 3 169 2 355 -1 293 -3 340 -17 355 -15 16
-11 24 59 105 91 108 98 121 84 147 -20 38 -74 44 -95 11 -15 -26 -20 -5 -19
92 1 123 -5 145 -45 153 -17 4 -38 15 -47 25 -22 25 -56 24 -79 -1z"/>
<path d="M198 860 c-7 -11 -22 -20 -34 -20 -38 0 -48 -25 -50 -128 -1 -53 -3
-103 -3 -109 -1 -8 -8 -6 -21 7 -11 11 -28 20 -38 20 -23 0 -52 -30 -52 -53 0
-9 35 -57 77 -108 68 -81 75 -93 64 -111 -10 -16 -16 -170 -12 -336 l1 -23
153 3 152 3 2 160 c1 111 -3 168 -11 186 -10 20 -10 30 -1 42 8 12 12 68 12
174 1 169 -6 199 -48 205 -12 2 -23 11 -25 21 -4 26 -24 47 -45 47 -11 0 -28
9 -39 20 -11 11 -31 20 -45 20 -14 0 -30 -9 -37 -20z"/>
<path d="M1001 861 c-11 -11 -30 -21 -43 -23 -14 -2 -29 -15 -38 -35 -8 -18
-23 -33 -32 -33 -38 0 -47 -37 -46 -198 1 -100 5 -161 14 -177 10 -19 9 -27
-1 -42 -9 -13 -13 -62 -13 -173 0 -85 3 -161 5 -167 4 -10 44 -13 154 -13
l149 0 1 38 c2 178 -2 305 -12 321 -10 15 -1 31 65 110 42 50 76 100 76 110 0
20 -30 51 -49 51 -6 0 -23 -7 -36 -16 -14 -9 -25 -15 -26 -13 0 2 -1 50 -2
105 -3 106 -12 134 -48 134 -11 0 -28 9 -39 20 -25 25 -54 26 -79 1z"/>
</g>
</svg>
